<svg id="mermaid-b55b07b0-0445-42f3-938f-54fd3b1bfc3c" width="1118.543212890625" xmlns="http://www.w3.org/2000/svg" class="flowchart" style="max-width: 1054.543212890625px;" viewBox="-28 -28 1118.543212890625 935.75" role="graphics-document document" aria-roledescription="flowchart-v2" xmlns:xlink="http://www.w3.org/1999/xlink" height="935.75"><rect x="-28" y="-28" width="1118.543212890625" height="935.75" fill="#ffffff"/><style>#mermaid-b55b07b0-0445-42f3-938f-54fd3b1bfc3c{font-family:ui-sans-serif,-apple-system,BlinkMacSystemFont,"Segoe UI Variable Display","Segoe UI",Helvetica,"Apple Color Emoji","Noto Sans Arabic","Noto Sans Hebrew",Arial,sans-serif,"Segoe UI Emoji","Segoe UI Symbol";font-size:16px;fill:#000000;}@keyframes edge-animation-frame{from{stroke-dashoffset:0;}}@keyframes dash{to{stroke-dashoffset:0;}}#mermaid-b55b07b0-0445-42f3-938f-54fd3b1bfc3c .edge-animation-slow{stroke-dasharray:9,5!important;stroke-dashoffset:900;animation:dash 50s linear infinite;stroke-linecap:round;}#mermaid-b55b07b0-0445-42f3-938f-54fd3b1bfc3c .edge-animation-fast{stroke-dasharray:9,5!important;stroke-dashoffset:900;animation:dash 20s linear infinite;stroke-linecap:round;}#mermaid-b55b07b0-0445-42f3-938f-54fd3b1bfc3c .error-icon{fill:#552222;}#mermaid-b55b07b0-0445-42f3-938f-54fd3b1bfc3c .error-text{fill:#552222;stroke:#552222;}#mermaid-b55b07b0-0445-42f3-938f-54fd3b1bfc3c .edge-thickness-normal{stroke-width:1px;}#mermaid-b55b07b0-0445-42f3-938f-54fd3b1bfc3c .edge-thickness-thick{stroke-width:3.5px;}#mermaid-b55b07b0-0445-42f3-938f-54fd3b1bfc3c .edge-pattern-solid{stroke-dasharray:0;}#mermaid-b55b07b0-0445-42f3-938f-54fd3b1bfc3c .edge-thickness-invisible{stroke-width:0;fill:none;}#mermaid-b55b07b0-0445-42f3-938f-54fd3b1bfc3c .edge-pattern-dashed{stroke-dasharray:3;}#mermaid-b55b07b0-0445-42f3-938f-54fd3b1bfc3c .edge-pattern-dotted{stroke-dasharray:2;}#mermaid-b55b07b0-0445-42f3-938f-54fd3b1bfc3c .marker{fill:#666;stroke:#666;}#mermaid-b55b07b0-0445-42f3-938f-54fd3b1bfc3c .marker.cross{stroke:#666;}#mermaid-b55b07b0-0445-42f3-938f-54fd3b1bfc3c svg{font-family:ui-sans-serif,-apple-system,BlinkMacSystemFont,"Segoe UI Variable Display","Segoe UI",Helvetica,"Apple Color Emoji","Noto Sans Arabic","Noto Sans Hebrew",Arial,sans-serif,"Segoe UI Emoji","Segoe UI Symbol";font-size:16px;}#mermaid-b55b07b0-0445-42f3-938f-54fd3b1bfc3c p{margin:0;}#mermaid-b55b07b0-0445-42f3-938f-54fd3b1bfc3c .label{font-family:ui-sans-serif,-apple-system,BlinkMacSystemFont,"Segoe UI Variable Display","Segoe UI",Helvetica,"Apple Color Emoji","Noto Sans Arabic","Noto Sans Hebrew",Arial,sans-serif,"Segoe UI Emoji","Segoe UI Symbol";color:#000000;}#mermaid-b55b07b0-0445-42f3-938f-54fd3b1bfc3c .cluster-label text{fill:#333;}#mermaid-b55b07b0-0445-42f3-938f-54fd3b1bfc3c .cluster-label span{color:#333;}#mermaid-b55b07b0-0445-42f3-938f-54fd3b1bfc3c .cluster-label span p{background-color:transparent;}#mermaid-b55b07b0-0445-42f3-938f-54fd3b1bfc3c .label text,#mermaid-b55b07b0-0445-42f3-938f-54fd3b1bfc3c span{fill:#000000;color:#000000;}#mermaid-b55b07b0-0445-42f3-938f-54fd3b1bfc3c .node rect,#mermaid-b55b07b0-0445-42f3-938f-54fd3b1bfc3c .node circle,#mermaid-b55b07b0-0445-42f3-938f-54fd3b1bfc3c .node ellipse,#mermaid-b55b07b0-0445-42f3-938f-54fd3b1bfc3c .node polygon,#mermaid-b55b07b0-0445-42f3-938f-54fd3b1bfc3c .node path{fill:#eee;stroke:#999;stroke-width:1px;}#mermaid-b55b07b0-0445-42f3-938f-54fd3b1bfc3c .rough-node .label text,#mermaid-b55b07b0-0445-42f3-938f-54fd3b1bfc3c .node .label text,#mermaid-b55b07b0-0445-42f3-938f-54fd3b1bfc3c .image-shape .label,#mermaid-b55b07b0-0445-42f3-938f-54fd3b1bfc3c .icon-shape .label{text-anchor:middle;}#mermaid-b55b07b0-0445-42f3-938f-54fd3b1bfc3c .node .katex path{fill:#000;stroke:#000;stroke-width:1px;}#mermaid-b55b07b0-0445-42f3-938f-54fd3b1bfc3c .rough-node .label,#mermaid-b55b07b0-0445-42f3-938f-54fd3b1bfc3c .node .label,#mermaid-b55b07b0-0445-42f3-938f-54fd3b1bfc3c .image-shape .label,#mermaid-b55b07b0-0445-42f3-938f-54fd3b1bfc3c .icon-shape .label{text-align:center;}#mermaid-b55b07b0-0445-42f3-938f-54fd3b1bfc3c .node.clickable{cursor:pointer;}#mermaid-b55b07b0-0445-42f3-938f-54fd3b1bfc3c .root .anchor path{fill:#666!important;stroke-width:0;stroke:#666;}#mermaid-b55b07b0-0445-42f3-938f-54fd3b1bfc3c .arrowheadPath{fill:#333333;}#mermaid-b55b07b0-0445-42f3-938f-54fd3b1bfc3c .edgePath .path{stroke:#666;stroke-width:2.0px;}#mermaid-b55b07b0-0445-42f3-938f-54fd3b1bfc3c .flowchart-link{stroke:#666;fill:none;}#mermaid-b55b07b0-0445-42f3-938f-54fd3b1bfc3c .edgeLabel{background-color:white;text-align:center;}#mermaid-b55b07b0-0445-42f3-938f-54fd3b1bfc3c .edgeLabel p{background-color:white;}#mermaid-b55b07b0-0445-42f3-938f-54fd3b1bfc3c .edgeLabel rect{opacity:0.5;background-color:white;fill:white;}#mermaid-b55b07b0-0445-42f3-938f-54fd3b1bfc3c .labelBkg{background-color:rgba(255, 255, 255, 0.5);}#mermaid-b55b07b0-0445-42f3-938f-54fd3b1bfc3c .cluster rect{fill:hsl(0, 0%, 98.9215686275%);stroke:#707070;stroke-width:1px;}#mermaid-b55b07b0-0445-42f3-938f-54fd3b1bfc3c .cluster text{fill:#333;}#mermaid-b55b07b0-0445-42f3-938f-54fd3b1bfc3c .cluster span{color:#333;}#mermaid-b55b07b0-0445-42f3-938f-54fd3b1bfc3c div.mermaidTooltip{position:absolute;text-align:center;max-width:200px;padding:2px;font-family:ui-sans-serif,-apple-system,BlinkMacSystemFont,"Segoe UI Variable Display","Segoe UI",Helvetica,"Apple Color Emoji","Noto Sans Arabic","Noto Sans Hebrew",Arial,sans-serif,"Segoe UI Emoji","Segoe UI Symbol";font-size:12px;background:hsl(-160, 0%, 93.3333333333%);border:1px solid #707070;border-radius:2px;pointer-events:none;z-index:100;}#mermaid-b55b07b0-0445-42f3-938f-54fd3b1bfc3c .flowchartTitleText{text-anchor:middle;font-size:18px;fill:#000000;}#mermaid-b55b07b0-0445-42f3-938f-54fd3b1bfc3c rect.text{fill:none;stroke-width:0;}#mermaid-b55b07b0-0445-42f3-938f-54fd3b1bfc3c .icon-shape,#mermaid-b55b07b0-0445-42f3-938f-54fd3b1bfc3c .image-shape{background-color:white;text-align:center;}#mermaid-b55b07b0-0445-42f3-938f-54fd3b1bfc3c .icon-shape p,#mermaid-b55b07b0-0445-42f3-938f-54fd3b1bfc3c .image-shape p{background-color:white;padding:2px;}#mermaid-b55b07b0-0445-42f3-938f-54fd3b1bfc3c .icon-shape rect,#mermaid-b55b07b0-0445-42f3-938f-54fd3b1bfc3c .image-shape rect{opacity:0.5;background-color:white;fill:white;}#mermaid-b55b07b0-0445-42f3-938f-54fd3b1bfc3c .label-icon{display:inline-block;height:1em;overflow:visible;vertical-align:-0.125em;}#mermaid-b55b07b0-0445-42f3-938f-54fd3b1bfc3c .node .label-icon path{fill:currentColor;stroke:revert;stroke-width:revert;}#mermaid-b55b07b0-0445-42f3-938f-54fd3b1bfc3c :root{--mermaid-font-family:"trebuchet ms",verdana,arial,sans-serif;}</style><g><marker id="mermaid-b55b07b0-0445-42f3-938f-54fd3b1bfc3c_flowchart-v2-pointEnd" class="marker flowchart-v2" viewBox="0 0 10 10" refX="5" refY="5" markerUnits="userSpaceOnUse" markerWidth="8" markerHeight="8" orient="auto"><path d="M 0 0 L 10 5 L 0 10 z" class="arrowMarkerPath" style="stroke-width: 1; stroke-dasharray: 1, 0;"/></marker><marker id="mermaid-b55b07b0-0445-42f3-938f-54fd3b1bfc3c_flowchart-v2-pointStart" class="marker flowchart-v2" viewBox="0 0 10 10" refX="4.5" refY="5" markerUnits="userSpaceOnUse" markerWidth="8" markerHeight="8" orient="auto"><path d="M 0 5 L 10 10 L 10 0 z" class="arrowMarkerPath" style="stroke-width: 1; stroke-dasharray: 1, 0;"/></marker><marker id="mermaid-b55b07b0-0445-42f3-938f-54fd3b1bfc3c_flowchart-v2-circleEnd" class="marker flowchart-v2" viewBox="0 0 10 10" refX="11" refY="5" markerUnits="userSpaceOnUse" markerWidth="11" markerHeight="11" orient="auto"><circle cx="5" cy="5" r="5" class="arrowMarkerPath" style="stroke-width: 1; stroke-dasharray: 1, 0;"/></marker><marker id="mermaid-b55b07b0-0445-42f3-938f-54fd3b1bfc3c_flowchart-v2-circleStart" class="marker flowchart-v2" viewBox="0 0 10 10" refX="-1" refY="5" markerUnits="userSpaceOnUse" markerWidth="11" markerHeight="11" orient="auto"><circle cx="5" cy="5" r="5" class="arrowMarkerPath" style="stroke-width: 1; stroke-dasharray: 1, 0;"/></marker><marker id="mermaid-b55b07b0-0445-42f3-938f-54fd3b1bfc3c_flowchart-v2-crossEnd" class="marker cross flowchart-v2" viewBox="0 0 11 11" refX="12" refY="5.2" markerUnits="userSpaceOnUse" markerWidth="11" markerHeight="11" orient="auto"><path d="M 1,1 l 9,9 M 10,1 l -9,9" class="arrowMarkerPath" style="stroke-width: 2; stroke-dasharray: 1, 0;"/></marker><marker id="mermaid-b55b07b0-0445-42f3-938f-54fd3b1bfc3c_flowchart-v2-crossStart" class="marker cross flowchart-v2" viewBox="0 0 11 11" refX="-1" refY="5.2" markerUnits="userSpaceOnUse" markerWidth="11" markerHeight="11" orient="auto"><path d="M 1,1 l 9,9 M 10,1 l -9,9" class="arrowMarkerPath" style="stroke-width: 2; stroke-dasharray: 1, 0;"/></marker></g><g class="subgraphs"/><g class="nodes"><g class="node default" id="flowchart-A-0" transform="translate(342.41186366233046, 98.75)"><polygon points="86.75,0 173.5,-86.75 86.75,-173.5 0,-86.75" class="label-container" transform="translate(-86.25, 86.75)"/><g class="label" style="" transform="translate(-59.75, -12)"><rect/><foreignObject width="119.5" height="24"><div xmlns="http://www.w3.org/1999/xhtml" style="display: table-cell; white-space: nowrap; line-height: 1.5; max-width: 200px; text-align: center;"><span class="nodeLabel"><p>데이터 보유 기간</p></span></div></foreignObject></g></g><g class="node default" id="flowchart-X-2" transform="translate(143.3643858393625, 306.5)"><rect class="basic label-container" style="" x="-89.75" y="-27" width="179.5" height="54"/><g class="label" style="" transform="translate(-59.75, -12)"><rect/><foreignObject width="119.5" height="24"><div xmlns="http://www.w3.org/1999/xhtml" style="display: table-cell; white-space: nowrap; line-height: 1.5; max-width: 200px; text-align: center;"><span class="nodeLabel"><p>이상치 탐지 불가</p></span></div></foreignObject></g></g><g class="node default" id="flowchart-B-4" transform="translate(354.8643858393625, 366.25)"><polygon points="86.75,0 173.5,-86.75 86.75,-173.5 0,-86.75" class="label-container" transform="translate(-86.25, 86.75)"/><g class="label" style="" transform="translate(-59.75, -12)"><rect/><foreignObject width="119.5" height="24"><div xmlns="http://www.w3.org/1999/xhtml" style="display: table-cell; white-space: nowrap; line-height: 1.5; max-width: 200px; text-align: center;"><span class="nodeLabel"><p>공휴일 포함 여부</p></span></div></foreignObject></g></g><g class="node default" id="flowchart-C-6" transform="translate(564.246424103125, 366.25)"><polygon points="86.75,0 173.5,-86.75 86.75,-173.5 0,-86.75" class="label-container" transform="translate(-86.25, 86.75)"/><g class="label" style="" transform="translate(-59.75, -12)"><rect/><foreignObject width="119.5" height="24"><div xmlns="http://www.w3.org/1999/xhtml" style="display: table-cell; white-space: nowrap; line-height: 1.5; max-width: 200px; text-align: center;"><span class="nodeLabel"><p>공휴일 포함 여부</p></span></div></foreignObject></g></g><g class="node default" id="flowchart-R1-8" transform="translate(83.875, 603.5)"><rect class="basic label-container" style="" x="-71.875" y="-39" width="143.75" height="78"/><g class="label" style="" transform="translate(-41.875, -24)"><rect/><foreignObject width="83.75" height="48"><div xmlns="http://www.w3.org/1999/xhtml" style="display: table-cell; white-space: nowrap; line-height: 1.5; max-width: 200px; text-align: center;"><span class="nodeLabel"><p>R0.5 / Q0.5<br />공휴일 제거</p></span></div></foreignObject></g></g><g class="node default" id="flowchart-R2-10" transform="translate(320.75, 615.5)"><rect class="basic label-container" style="" x="-130" y="-51" width="260" height="102"/><g class="label" style="" transform="translate(-100, -36)"><rect/><foreignObject width="200" height="72"><div xmlns="http://www.w3.org/1999/xhtml" style="display: table; white-space: break-spaces; line-height: 1.5; max-width: 200px; text-align: center; width: 200px;"><span class="nodeLabel"><p>R0.5 / Q0.5<br />양력/음력 공휴일끼리 비교 - 요일 무시</p></span></div></foreignObject></g></g><g class="node default" id="flowchart-R3-12" transform="translate(580.3671875000002, 603.5)"><rect class="basic label-container" style="" x="-94.6171875" y="-39" width="189.234375" height="78"/><g class="label" style="" transform="translate(-64.6171875, -24)"><rect/><foreignObject width="129.234375" height="48"><div xmlns="http://www.w3.org/1999/xhtml" style="display: table-cell; white-space: nowrap; line-height: 1.5; max-width: 200px; text-align: center;"><span class="nodeLabel"><p>R0.4 / Q0.3 / SY0.3<br />공휴일 제거</p></span></div></foreignObject></g></g><g class="node default" id="flowchart-D-14" transform="translate(778.859375, 633.375)"><polygon points="68.875,0 137.75,-68.875 68.875,-137.75 0,-68.875" class="label-container" transform="translate(-68.375, 68.875)"/><g class="label" style="" transform="translate(-41.875, -12)"><rect/><foreignObject width="83.75" height="24"><div xmlns="http://www.w3.org/1999/xhtml" style="display: table-cell; white-space: nowrap; line-height: 1.5; max-width: 200px; text-align: center;"><span class="nodeLabel"><p>공휴일 유형</p></span></div></foreignObject></g></g><g class="node default" id="flowchart-R4-16" transform="translate(459.9417353864362, 840.75)"><rect class="basic label-container" style="" x="-94.6171875" y="-27" width="189.234375" height="54"/><g class="label" style="" transform="translate(-64.6171875, -12)"><rect/><foreignObject width="129.234375" height="24"><div xmlns="http://www.w3.org/1999/xhtml" style="display: table-cell; white-space: nowrap; line-height: 1.5; max-width: 200px; text-align: center;"><span class="nodeLabel"><p>R0.4 / Q0.3 / SY0.3</p></span></div></foreignObject></g></g><g class="node default" id="flowchart-R5-18" transform="translate(682.9261103864362, 840.75)"><rect class="basic label-container" style="" x="-93.3671875" y="-27" width="186.734375" height="54"/><g class="label" style="" transform="translate(-63.3671875, -12)"><rect/><foreignObject width="126.734375" height="24"><div xmlns="http://www.w3.org/1999/xhtml" style="display: table-cell; white-space: nowrap; line-height: 1.5; max-width: 200px; text-align: center;"><span class="nodeLabel"><p>R0.4 / Q0.3 / LY0.3</p></span></div></foreignObject></g></g><g class="node default" id="flowchart-R6-20" transform="translate(930.9182978864362, 840.75)"><rect class="basic label-container" style="" x="-119.625" y="-27" width="239.25" height="54"/><g class="label" style="" transform="translate(-89.625, -12)"><rect/><foreignObject width="179.25" height="24"><div xmlns="http://www.w3.org/1999/xhtml" style="display: table-cell; white-space: nowrap; line-height: 1.5; max-width: 200px; text-align: center;"><span class="nodeLabel"><p>R0.4 / Q0.2 / SY0.2 / LY0.2</p></span></div></foreignObject></g></g></g><g class="edges edgePaths"><path d="M313.995,157.083L311.502,161.819C309.009,166.556,304.023,176.028,301.53,182.847C299.037,189.667,299.037,193.833,298.675,196.388C298.313,198.943,297.589,199.886,296.756,200.719C295.922,201.552,294.98,202.276,282.163,202.638C269.346,203,244.656,203,231.839,203.362C219.023,203.724,218.08,204.448,217.246,205.281C216.413,206.114,215.689,207.057,215.327,215.695C214.965,224.333,214.965,240.667,214.603,249.305C214.242,257.943,213.518,258.886,212.684,259.719C211.851,260.552,210.908,261.276,200.17,261.638C189.432,262,168.898,262,158.16,262.362C147.422,262.724,146.479,263.448,145.645,264.281C144.812,265.114,144.088,266.057,143.726,267.945C143.364,269.833,143.364,272.667,143.364,274.083L143.364,275.5" id="L_A_X_0_0" class="edge-thickness-normal edge-pattern-solid edge-thickness-normal edge-pattern-solid flowchart-link" style="" marker-end="url(#mermaid-b55b07b0-0445-42f3-938f-54fd3b1bfc3c_flowchart-v2-pointEnd)"/><path d="M342.412,185.5L342.412,197.417C342.412,209.333,342.412,233.167,342.774,245.555C343.136,257.943,343.86,258.886,344.693,259.719C345.526,260.552,346.469,261.276,347.349,261.638C348.229,262,349.047,262,349.927,262.362C350.807,262.724,351.75,263.448,352.583,264.281C353.417,265.114,354.141,266.057,354.502,267.945C354.864,269.833,354.864,272.667,354.864,274.083L354.864,275.5" id="L_A_B_0_0" class="edge-thickness-normal edge-pattern-solid edge-thickness-normal edge-pattern-solid flowchart-link" style="" marker-end="url(#mermaid-b55b07b0-0445-42f3-938f-54fd3b1bfc3c_flowchart-v2-pointEnd)"/><path d="M371.829,157.083L374.155,161.819C376.481,166.556,381.134,176.028,383.46,182.847C385.787,189.667,385.787,193.833,386.149,196.388C386.511,198.943,387.235,199.886,388.068,200.719C388.901,201.552,389.844,202.276,418.392,202.638C446.94,203,503.093,203,531.641,203.362C560.189,203.724,561.132,204.448,561.965,205.281C562.799,206.114,563.523,207.057,563.884,218.779C564.246,230.5,564.246,253,564.246,264.25L564.246,275.5" id="L_A_C_0_0" class="edge-thickness-normal edge-pattern-solid edge-thickness-normal edge-pattern-solid flowchart-link" style="" marker-end="url(#mermaid-b55b07b0-0445-42f3-938f-54fd3b1bfc3c_flowchart-v2-pointEnd)"/><path d="M333.677,431.813L332.389,435.344C331.1,438.875,328.524,445.938,327.236,451.552C325.948,457.167,325.948,461.333,325.586,463.888C325.224,466.443,324.5,467.386,323.667,468.219C322.833,469.052,321.891,469.776,301.795,470.138C281.699,470.5,242.451,470.5,222.356,470.862C202.26,471.224,201.317,471.948,200.484,472.781C199.651,473.614,198.927,474.557,198.565,486.112C198.203,497.667,198.203,519.833,197.841,531.388C197.479,542.943,196.755,543.886,195.922,544.719C195.088,545.552,194.146,546.276,176.286,546.638C158.427,547,123.651,547,105.792,547.362C87.932,547.724,86.989,548.448,86.156,549.281C85.323,550.114,84.599,551.057,84.237,552.945C83.875,554.833,83.875,557.667,83.875,559.083L83.875,560.5" id="L_B_R1_0_0" class="edge-thickness-normal edge-pattern-solid edge-thickness-normal edge-pattern-solid flowchart-link" style="" marker-end="url(#mermaid-b55b07b0-0445-42f3-938f-54fd3b1bfc3c_flowchart-v2-pointEnd)"/><path d="M377.052,431.813L378.173,435.344C379.295,438.875,381.538,445.938,382.66,454.469C383.781,463,383.781,473,383.419,478.471C383.057,483.943,382.333,484.886,381.5,485.719C380.667,486.552,379.724,487.276,370.414,487.638C361.104,488,343.427,488,334.117,488.362C324.807,488.724,323.864,489.448,323.031,490.281C322.198,491.114,321.474,492.057,321.112,503.779C320.75,515.5,320.75,538,320.75,549.25L320.75,560.5" id="L_B_R2_0_0" class="edge-thickness-normal edge-pattern-solid edge-thickness-normal edge-pattern-solid flowchart-link" style="" marker-end="url(#mermaid-b55b07b0-0445-42f3-938f-54fd3b1bfc3c_flowchart-v2-pointEnd)"/><path d="M543.059,431.813L541.771,435.344C540.483,438.875,537.906,445.938,536.618,464.302C535.33,482.667,535.33,512.333,535.692,527.638C536.054,542.943,536.777,543.886,537.611,544.719C538.444,545.552,539.387,546.276,545.698,546.638C552.009,547,563.688,547,569.999,547.362C576.31,547.724,577.253,548.448,578.086,549.281C578.919,550.114,579.643,551.057,580.005,552.945C580.367,554.833,580.367,557.667,580.367,559.083L580.367,560.5" id="L_C_R3_0_0" class="edge-thickness-normal edge-pattern-solid edge-thickness-normal edge-pattern-solid flowchart-link" style="" marker-end="url(#mermaid-b55b07b0-0445-42f3-938f-54fd3b1bfc3c_flowchart-v2-pointEnd)"/><path d="M586.434,431.812L587.555,435.344C588.677,438.875,590.92,445.938,592.042,451.552C593.163,457.167,593.163,461.333,593.525,463.888C593.887,466.443,594.611,467.386,595.444,468.219C596.277,469.052,597.22,469.776,626.974,470.138C656.729,470.5,715.294,470.5,745.048,470.862C774.802,471.224,775.745,471.948,776.578,472.781C777.412,473.614,778.136,474.557,778.497,489.195C778.859,503.833,778.859,532.167,778.859,546.333L778.859,560.5" id="L_C_D_0_0" class="edge-thickness-normal edge-pattern-solid edge-thickness-normal edge-pattern-solid flowchart-link" style="" marker-end="url(#mermaid-b55b07b0-0445-42f3-938f-54fd3b1bfc3c_flowchart-v2-pointEnd)"/><path d="M756.401,679.792L754.405,683.535C752.408,687.278,748.415,694.764,746.418,700.59C744.422,706.417,744.422,710.583,744.06,713.138C743.698,715.693,742.974,716.636,742.141,717.469C741.307,718.302,740.365,719.026,694.147,719.388C647.928,719.75,556.435,719.75,510.217,720.112C463.999,720.474,463.056,721.198,462.223,722.031C461.389,722.864,460.666,723.807,460.304,738.445C459.942,753.083,459.942,781.417,459.942,795.583L459.942,809.75" id="L_D_R4_0_0" class="edge-thickness-normal edge-pattern-solid edge-thickness-normal edge-pattern-solid flowchart-link" style="" marker-end="url(#mermaid-b55b07b0-0445-42f3-938f-54fd3b1bfc3c_flowchart-v2-pointEnd)"/><path d="M778.859,702.25L778.859,707.25C778.859,712.25,778.859,722.25,778.497,727.721C778.136,733.193,777.412,734.136,776.578,734.969C775.745,735.802,774.802,736.526,760.009,736.888C745.215,737.25,716.571,737.25,701.777,737.612C686.983,737.974,686.04,738.698,685.207,739.531C684.374,740.364,683.65,741.307,683.288,753.029C682.926,764.75,682.926,787.25,682.926,798.5L682.926,809.75" id="L_D_R5_0_0" class="edge-thickness-normal edge-pattern-solid edge-thickness-normal edge-pattern-solid flowchart-link" style="" marker-end="url(#mermaid-b55b07b0-0445-42f3-938f-54fd3b1bfc3c_flowchart-v2-pointEnd)"/><path d="M802.318,679.792L804.148,683.535C805.977,687.278,809.637,694.764,811.467,713.34C813.297,731.917,813.297,761.583,813.659,776.888C814.021,792.193,814.745,793.136,815.578,793.969C816.411,794.802,817.354,795.526,835.762,795.888C854.171,796.25,890.044,796.25,908.453,796.612C926.861,796.974,927.804,797.698,928.637,798.531C929.471,799.364,930.194,800.307,930.556,802.195C930.918,804.083,930.918,806.917,930.918,808.333L930.918,809.75" id="L_D_R6_0_0" class="edge-thickness-normal edge-pattern-solid edge-thickness-normal edge-pattern-solid flowchart-link" style="" marker-end="url(#mermaid-b55b07b0-0445-42f3-938f-54fd3b1bfc3c_flowchart-v2-pointEnd)"/></g><g class="edgeLabels"><g class="edgeLabel" transform="translate(214.65286266723353, 232.5)"><g class="label" transform="translate(-38.1875, -12)"><foreignObject width="76.375" height="24"><div xmlns="http://www.w3.org/1999/xhtml" class="labelBkg" style="display: table-cell; white-space: nowrap; line-height: 1.5; max-width: 200px; text-align: center;"><span class="edgeLabel"><p>3개월 미만</p></span></div></foreignObject></g></g><g class="edgeLabel" transform="translate(342.11498866233046, 232.5)"><g class="label" transform="translate(-36.703125, -12)"><foreignObject width="73.40625" height="24"><div xmlns="http://www.w3.org/1999/xhtml" class="labelBkg" style="display: table-cell; white-space: nowrap; line-height: 1.5; max-width: 200px; text-align: center;"><span class="edgeLabel"><p>3개월~1년</p></span></div></foreignObject></g></g><g class="edgeLabel" transform="translate(564.121424103125, 232.5)"><g class="label" transform="translate(-28.875, -12)"><foreignObject width="57.75" height="24"><div xmlns="http://www.w3.org/1999/xhtml" class="labelBkg" style="display: table-cell; white-space: nowrap; line-height: 1.5; max-width: 200px; text-align: center;"><span class="edgeLabel"><p>1년 이상</p></span></div></foreignObject></g></g><g class="edgeLabel" transform="translate(198.1012899562557, 517.5)"><g class="label" transform="translate(-45.3984375, -12)"><foreignObject width="90.796875" height="24"><div xmlns="http://www.w3.org/1999/xhtml" class="labelBkg" style="display: table-cell; white-space: nowrap; line-height: 1.5; max-width: 200px; text-align: center;"><span class="edgeLabel"><p>주중+주말만</p></span></div></foreignObject></g></g><g class="edgeLabel" transform="translate(320.625, 517.5)"><g class="label" transform="translate(-41.875, -12)"><foreignObject width="83.75" height="24"><div xmlns="http://www.w3.org/1999/xhtml" class="labelBkg" style="display: table-cell; white-space: nowrap; line-height: 1.5; max-width: 200px; text-align: center;"><span class="edgeLabel"><p>공휴일 포함</p></span></div></foreignObject></g></g><g class="edgeLabel" transform="translate(535.2281949364583, 517.5)"><g class="label" transform="translate(-45.3984375, -12)"><foreignObject width="90.796875" height="24"><div xmlns="http://www.w3.org/1999/xhtml" class="labelBkg" style="display: table-cell; white-space: nowrap; line-height: 1.5; max-width: 200px; text-align: center;"><span class="edgeLabel"><p>주중+주말만</p></span></div></foreignObject></g></g><g class="edgeLabel" transform="translate(778.734375, 517.5)"><g class="label" transform="translate(-41.875, -12)"><foreignObject width="83.75" height="24"><div xmlns="http://www.w3.org/1999/xhtml" class="labelBkg" style="display: table-cell; white-space: nowrap; line-height: 1.5; max-width: 200px; text-align: center;"><span class="edgeLabel"><p>공휴일 포함</p></span></div></foreignObject></g></g><g class="edgeLabel" transform="translate(459.9417353864362, 766.75)"><g class="label" transform="translate(-16, -12)"><foreignObject width="32" height="24"><div xmlns="http://www.w3.org/1999/xhtml" class="labelBkg" style="display: table-cell; white-space: nowrap; line-height: 1.5; max-width: 200px; text-align: center;"><span class="edgeLabel"><p>양력</p></span></div></foreignObject></g></g><g class="edgeLabel" transform="translate(682.9261103864362, 766.75)"><g class="label" transform="translate(-16, -12)"><foreignObject width="32" height="24"><div xmlns="http://www.w3.org/1999/xhtml" class="labelBkg" style="display: table-cell; white-space: nowrap; line-height: 1.5; max-width: 200px; text-align: center;"><span class="edgeLabel"><p>음력</p></span></div></foreignObject></g></g><g class="edgeLabel" transform="translate(813.1953125, 766.75)"><g class="label" transform="translate(-37.3984375, -12)"><foreignObject width="74.796875" height="24"><div xmlns="http://www.w3.org/1999/xhtml" class="labelBkg" style="display: table-cell; white-space: nowrap; line-height: 1.5; max-width: 200px; text-align: center;"><span class="edgeLabel"><p>양력+음력</p></span></div></foreignObject></g></g></g></svg>